<svg xmlns="http://www.w3.org/2000/svg" viewBox="0 0 100 100">
  <defs>
    <linearGradient id="goldGrad" x1="0%" y1="0%" x2="100%" y2="100%">
      <stop offset="0%" stop-color="#E5C378"/>
      <stop offset="50%" stop-color="#C5A059"/>
      <stop offset="100%" stop-color="#9A783E"/>
    </linearGradient>
  </defs>
  <circle cx="50" cy="50" r="46" fill="#1A3636" stroke="url(#goldGrad)" stroke-width="2"/>
  <circle cx="50" cy="50" r="42" fill="none" stroke="url(#goldGrad)" stroke-width="0.75" stroke-dasharray="2 3"/>
  <!-- Stylized Lotus Crest -->
  <path d="M50 24 C53 34 60 40 60 48 C60 55 55 60 50 63 C45 60 40 55 40 48 C40 40 47 34 50 24 Z" fill="url(#goldGrad)" opacity="0.95"/>
  <path d="M50 36 C57 41 68 45 68 53 C68 60 60 64 50 64 C40 64 32 60 32 53 C32 45 43 41 50 36 Z" fill="url(#goldGrad)" opacity="0.8"/>
  <path d="M50 46 C60 49 74 53 74 60 C74 67 62 70 50 70 C38 70 26 67 26 60 C26 53 40 49 50 46 Z" fill="url(#goldGrad)" opacity="0.6"/>
  <!-- Royal Monogram Lettering R & V / Lotus base -->
  <path d="M42 75 L58 75 M46 75 L46 79 L54 79 L54 75" stroke="url(#goldGrad)" stroke-width="1.5" stroke-linecap="round" fill="none"/>
  <circle cx="50" cy="20" r="2.5" fill="url(#goldGrad)"/>
</svg>